<svg width="32" height="32" viewBox="0 0 32 32" xmlns="http://www.w3.org/2000/svg">
  <!-- Crochet Hook Design -->
  <defs>
    <linearGradient id="hookGradient" x1="0%" y1="0%" x2="100%" y2="100%">
      <stop offset="0%" style="stop-color:#3B82F6;stop-opacity:1" />
      <stop offset="100%" style="stop-color:#1E40AF;stop-opacity:1" />
    </linearGradient>
  </defs>
  
  <!-- Background circle -->
  <circle cx="16" cy="16" r="16" fill="#F8FAFC"/>
  
  <!-- Crochet hook handle -->
  <rect x="6" y="10" width="2" height="12" rx="1" fill="url(#hookGradient)"/>
  
  <!-- Crochet hook shaft -->
  <rect x="8" y="14" width="16" height="1.5" rx="0.75" fill="url(#hookGradient)"/>
  
  <!-- Crochet hook point -->
  <polygon points="24,14 26,15.75 24,17.5" fill="url(#hookGradient)"/>
  
  <!-- Hook curve -->
  <path d="M24 14.75 Q25.5 13.5 25.5 15.75 Q25.5 18 24 16.75" 
        stroke="url(#hookGradient)" 
        stroke-width="1.5" 
        fill="none" 
        stroke-linecap="round"/>
  
  <!-- Yarn strand -->
  <path d="M10 8 Q14 6 18 8 Q22 10 20 12 Q18 14 14 12 Q10 10 12 8" 
        stroke="#F59E0B" 
        stroke-width="2" 
        fill="none" 
        stroke-linecap="round"/>
  
  <!-- Small yarn ball -->
  <circle cx="12" cy="24" r="3" fill="#F59E0B"/>
  <path d="M10 22 Q12 23 14 22 M10 24 Q12 25 14 24 M10 26 Q12 25 14 26" 
        stroke="#D97706" 
        stroke-width="0.8" 
        fill="none" 
        stroke-linecap="round"/>
</svg>