<svg width="64" height="64" viewBox="0 0 64 64" xmlns="http://www.w3.org/2000/svg">
  <!-- High resolution crochet hook favicon -->
  <defs>
    <linearGradient id="hookGrad" x1="0%" y1="0%" x2="100%" y2="100%">
      <stop offset="0%" style="stop-color:#3B82F6;stop-opacity:1" />
      <stop offset="100%" style="stop-color:#1E40AF;stop-opacity:1" />
    </linearGradient>
    <linearGradient id="yarnGrad" x1="0%" y1="0%" x2="100%" y2="100%">
      <stop offset="0%" style="stop-color:#F59E0B;stop-opacity:1" />
      <stop offset="100%" style="stop-color:#D97706;stop-opacity:1" />
    </linearGradient>
  </defs>
  
  <!-- Background -->
  <rect width="64" height="64" rx="12" fill="#F8FAFC"/>
  
  <!-- Crochet hook handle (ergonomic grip) -->
  <rect x="12" y="20" width="4" height="24" rx="2" fill="url(#hookGrad)"/>
  <rect x="13" y="22" width="2" height="20" rx="1" fill="#60A5FA" opacity="0.6"/>
  
  <!-- Crochet hook shaft -->
  <rect x="16" y="30" width="32" height="3" rx="1.5" fill="url(#hookGrad)"/>
  
  <!-- Hook tip -->
  <polygon points="48,30 52,31.5 48,33" fill="url(#hookGrad)"/>
  
  <!-- Hook curve (more defined) -->
  <path d="M48 31.5 Q51 28 51 31.5 Q51 35 48 31.5" 
        stroke="url(#hookGrad)" 
        stroke-width="2.5" 
        fill="none" 
        stroke-linecap="round"/>
  
  <!-- Yarn strands (flowing) -->
  <path d="M20 15 Q28 10 36 15 Q44 20 40 25 Q36 30 28 25 Q20 20 24 15" 
        stroke="url(#yarnGrad)" 
        stroke-width="3" 
        fill="none" 
        stroke-linecap="round"/>
  
  <path d="M22 18 Q26 16 30 18 Q34 20 32 22" 
        stroke="#FBBF24" 
        stroke-width="2" 
        fill="none" 
        stroke-linecap="round"/>
  
  <!-- Yarn ball -->
  <circle cx="24" cy="48" r="6" fill="url(#yarnGrad)"/>
  <path d="M20 45 Q24 46 28 45 M20 48 Q24 50 28 48 M20 51 Q24 50 28 51" 
        stroke="#FBBF24" 
        stroke-width="1.5" 
        fill="none" 
        stroke-linecap="round"/>
  
  <!-- Additional yarn texture -->
  <path d="M22 46 Q24 47 26 46 M22 50 Q24 49 26 50" 
        stroke="#F59E0B" 
        stroke-width="1" 
        fill="none" 
        stroke-linecap="round"/>
</svg>